<svg xmlns="http://www.w3.org/2000/svg" viewBox="0 0 52.69 52.69"><defs><style>.cls-1{fill:#fff;}</style></defs><title>flecha_banner</title><g id="Capa_2" data-name="Capa 2"><g id="Layer_1" data-name="Layer 1"><path class="cls-1" d="M51.19,24.85a1.5,1.5,0,0,0-1.5,1.5,23.34,23.34,0,1,1-5.15-14.63,1.5,1.5,0,1,0,2.34-1.88,26.35,26.35,0,1,0,5.82,16.51A1.5,1.5,0,0,0,51.19,24.85Z"/><path class="cls-1" d="M26.35,11.21a1.5,1.5,0,0,0-1.5,1.5V34.79l-8.2-8.2a1.5,1.5,0,0,0-2.12,2.12L25.29,39.47a1.5,1.5,0,0,0,2.12,0L38.17,28.71A1.5,1.5,0,0,0,36,26.59l-8.2,8.2V12.71A1.5,1.5,0,0,0,26.35,11.21Z"/></g></g></svg>